<svg xmlns="http://www.w3.org/2000/svg" xmlns:xlink="http://www.w3.org/1999/xlink" width="500" zoomAndPan="magnify" viewBox="0 0 375 374.999991" height="500" preserveAspectRatio="xMidYMid meet" version="1.0"><defs><clipPath id="4f1de8ae19"><path d="M 41.484375 33.128906 L 337.734375 33.128906 L 337.734375 337.589844 L 41.484375 337.589844 Z M 41.484375 33.128906 " clip-rule="nonzero"/></clipPath></defs><rect x="-37.5" width="450" fill="#ffffff" y="-37.499999" height="449.999989" fill-opacity="1"/><rect x="-37.5" width="450" fill="#ffffff" y="-37.499999" height="449.999989" fill-opacity="1"/><rect x="-37.5" width="450" fill="#ffffff" y="-37.499999" height="449.999989" fill-opacity="1"/><g clip-path="url(#4f1de8ae19)"><path fill="#1d1d1b" d="M 185.441406 33.128906 L 41.484375 33.128906 L 96.796875 88.414062 L 186.957031 88.414062 C 240.515625 88.414062 283.9375 131.824219 283.9375 185.359375 C 283.9375 212.121094 273.082031 236.355469 255.53125 253.90625 C 237.976562 271.445312 213.730469 282.300781 186.957031 282.300781 L 96.796875 282.300781 L 41.484375 337.589844 L 185.441406 337.589844 C 227.492188 337.589844 265.574219 320.546875 293.128906 293.003906 C 320.683594 265.457031 337.734375 227.390625 337.734375 185.359375 C 337.734375 101.285156 269.550781 33.128906 185.441406 33.128906 " fill-opacity="1" fill-rule="nonzero"/></g><path fill="#1d1d1b" d="M 222.566406 185.359375 C 222.566406 150.589844 194.371094 122.410156 159.589844 122.410156 L 114.980469 122.410156 L 114.980469 248.308594 L 159.589844 248.308594 C 176.980469 248.308594 192.722656 241.261719 204.117188 229.871094 C 215.515625 218.480469 222.566406 202.742188 222.566406 185.359375 " fill-opacity="1" fill-rule="nonzero"/></svg>