<svg xmlns="http://www.w3.org/2000/svg" xmlns:xlink="http://www.w3.org/1999/xlink" width="793" zoomAndPan="magnify" viewBox="0 0 594.95996 842.24997" height="1122" preserveAspectRatio="xMidYMid meet" version="1.0"><defs><filter x="0%" y="0%" width="100%" height="100%" id="7deced80a5"><feColorMatrix values="0 0 0 0 1 0 0 0 0 1 0 0 0 0 1 0 0 0 1 0" color-interpolation-filters="sRGB"/></filter><clipPath id="35946d9697"><path d="M 170 0 L 594.675781 0 L 594.675781 488 L 170 488 Z M 170 0 " clip-rule="nonzero"/></clipPath><clipPath id="86a60b72b7"><path d="M 157.96875 473.777344 L 247.035156 -87.464844 L 938.421875 22.257812 L 849.351562 583.5 Z M 157.96875 473.777344 " clip-rule="nonzero"/></clipPath><clipPath id="0be1e86e16"><path d="M 157.96875 473.777344 L 247.035156 -87.464844 L 938.421875 22.257812 L 849.351562 583.5 Z M 157.96875 473.777344 " clip-rule="nonzero"/></clipPath><mask id="5e64ba6fdc"><g filter="url(#7deced80a5)"><rect x="-59.495996" width="713.951952" fill="#000000" y="-84.224997" height="1010.699964" fill-opacity="0.498"/></g></mask><clipPath id="b09c21eac6"><path d="M 40 0 L 417 0 L 417 487 L 40 487 Z M 40 0 " clip-rule="nonzero"/></clipPath><clipPath id="aeb4b41b41"><path d="M -12.03125 473.777344 L 77.035156 -87.464844 L 768.421875 22.257812 L 679.351562 583.5 Z M -12.03125 473.777344 " clip-rule="nonzero"/></clipPath><clipPath id="77301f2ec5"><path d="M -12.03125 473.777344 L 77.035156 -87.464844 L 768.421875 22.257812 L 679.351562 583.5 Z M -12.03125 473.777344 " clip-rule="nonzero"/></clipPath><clipPath id="2d7acedad7"><rect x="0" width="425" y="0" height="488"/></clipPath><clipPath id="08e41af642"><path d="M 322 0 L 594.675781 0 L 594.675781 551 L 322 551 Z M 322 0 " clip-rule="nonzero"/></clipPath><clipPath id="2195495307"><path d="M 157.96875 473.777344 L 247.035156 -87.464844 L 938.421875 22.257812 L 849.351562 583.5 Z M 157.96875 473.777344 " clip-rule="nonzero"/></clipPath><clipPath id="30301aa4b4"><path d="M 157.96875 473.777344 L 247.035156 -87.464844 L 938.421875 22.257812 L 849.351562 583.5 Z M 157.96875 473.777344 " clip-rule="nonzero"/></clipPath></defs><g clip-path="url(#35946d9697)"><g clip-path="url(#86a60b72b7)"><g clip-path="url(#0be1e86e16)"><g mask="url(#5e64ba6fdc)"><g transform="matrix(1, 0, 0, 1, 170, 0)"><g clip-path="url(#2d7acedad7)"><g clip-path="url(#b09c21eac6)"><g clip-path="url(#aeb4b41b41)"><g clip-path="url(#77301f2ec5)"><path fill="#000000" d="M 394.042969 452.332031 C 377.070312 418.964844 369.167969 380.125 343.101562 353.367188 C 305.246094 314.453125 241.589844 313.683594 199.042969 279.914062 C 163.1875 251.480469 147.785156 202.03125 153.851562 156.695312 C 159.921875 111.363281 185.171875 70.113281 217.695312 37.878906 C 224.015625 31.273438 230.726562 25.085938 237.824219 19.324219 C 244.921875 13.558594 252.351562 8.257812 260.113281 3.425781 C 267.871094 -1.40625 275.90625 -5.734375 284.207031 -9.558594 C 292.511719 -13.382812 301.019531 -16.671875 309.734375 -19.429688 C 322.058594 -23.273438 334.589844 -26.25 347.328125 -28.355469 C 328.183594 -33.648438 308.679688 -36.414062 288.816406 -36.65625 C 239.203125 -37.152344 190.273438 -21.878906 148.15625 4.535156 C 140.429688 9.414062 133.039062 14.757812 125.984375 20.5625 C 118.925781 26.367188 112.257812 32.59375 105.980469 39.234375 C 99.703125 45.875 93.863281 52.882812 88.460938 60.257812 C 83.058594 67.632812 78.136719 75.3125 73.699219 83.304688 C 50.472656 122.8125 36.566406 169.105469 42.230469 214.535156 C 47.894531 259.960938 75.394531 303.851562 117.277344 322.1875 C 167.046875 343.945312 228.75 328.429688 275.304688 356.480469 C 307.234375 375.71875 324.851562 411.335938 349.65625 439.191406 C 358.867188 449.433594 369.101562 458.515625 380.363281 466.445312 C 391.625 474.371094 403.628906 480.9375 416.375 486.152344 C 407.632812 475.734375 400.191406 464.464844 394.042969 452.332031 Z M 394.042969 452.332031 " fill-opacity="1" fill-rule="nonzero"/></g></g></g></g></g></g></g></g></g><g clip-path="url(#08e41af642)"><g clip-path="url(#2195495307)"><g clip-path="url(#30301aa4b4)"><path fill="#000000" d="M 517.261719 -28.367188 C 504.523438 -26.257812 491.992188 -23.28125 479.664062 -19.4375 C 470.949219 -16.6875 462.441406 -13.402344 454.136719 -9.582031 C 445.832031 -5.765625 437.796875 -1.441406 430.035156 3.386719 C 422.273438 8.214844 414.839844 13.507812 407.742188 19.269531 C 400.640625 25.027344 393.925781 31.210938 387.601562 37.8125 C 355.128906 70.054688 329.886719 111.269531 323.761719 156.628906 C 317.632812 201.988281 333.089844 251.464844 368.949219 279.847656 C 411.5 313.617188 475.160156 314.316406 513.007812 353.300781 C 539.167969 380.125 547.070312 418.964844 564.042969 452.332031 C 570.195312 464.433594 577.636719 475.675781 586.371094 486.0625 C 623.289062 530.027344 680.96875 556.777344 737.5625 548.925781 C 807.542969 539.246094 866.96875 471.046875 859.144531 400.75 C 854.042969 354.820312 824.375 315.664062 809.914062 271.695312 C 793.964844 223.28125 796.914062 170.25 781.46875 121.691406 C 759.082031 51.25 697.347656 -3.910156 626.140625 -23.472656 C 617.289062 -25.835938 608.335938 -27.714844 599.28125 -29.109375 C 590.226562 -30.503906 581.121094 -31.410156 571.96875 -31.820312 C 562.816406 -32.230469 553.667969 -32.148438 544.523438 -31.570312 C 535.378906 -30.996094 526.289062 -29.925781 517.261719 -28.367188 Z M 517.261719 -28.367188 " fill-opacity="1" fill-rule="nonzero"/></g></g></g></svg>