<svg xmlns="http://www.w3.org/2000/svg" xmlns:xlink="http://www.w3.org/1999/xlink" width="793" zoomAndPan="magnify" viewBox="0 0 594.95996 842.24997" height="1122" preserveAspectRatio="xMidYMid meet" version="1.0"><defs><clipPath id="e05e4e9d3a"><path d="M 0.246094 417 L 502 417 L 502 840.792969 L 0.246094 840.792969 Z M 0.246094 417 " clip-rule="nonzero"/></clipPath></defs><g clip-path="url(#e05e4e9d3a)"><path fill="#000000" d="M 51.222656 961.613281 C -17.367188 968.515625 -60.375 915.992188 -60.375 915.992188 C -60.375 915.992188 -301.503906 638.019531 -66.304688 460.175781 C -66.304688 460.175781 -25.96875 430.394531 68.609375 459.039062 C 68.609375 459.039062 140.976562 500.503906 333.304688 424.824219 C 333.304688 424.824219 435.886719 387.628906 484.011719 478.066406 C 484.011719 478.066406 534.808594 571.933594 464.757812 637.507812 C 464.757812 637.507812 379.027344 710.601562 394.039062 843.34375 C 394.039062 843.34375 400.382812 1060.574219 230.238281 982.109375 C 145.230469 933.46875 51.222656 961.613281 51.222656 961.613281 Z M 51.222656 961.613281 " fill-opacity="0.9882" fill-rule="nonzero"/></g></svg>